# xmcd CD database file generated by OrangeCD 5.1
#
# Track frame offsets:
#	150
#	13425
#	28719
#	45180
#	56940
#	72507
#	88682
#	98722
#	120380
#	134245
#	147562
#	158962
#
# Disc length: 2335 seconds
#
# Revision: 1
# Processed by: cddbd v1.4PL0 Copyright (c) Steve Scherf et al.
# Submitted via: OrangeCD 5.1
#
DISCID=b2091d0c
DTITLE=Rex Hobart and The Misery Boys - The Spectacular Sadness of
DYEAR=2000
DGENRE=Country
TTITLE0=Forever Always Ends
TTITLE1=Here Comes Nothing
TTITLE2=The One and Lonely You
TTITLE3=Bridge Burners Union (Local 36)
TTITLE4=I'm Not Drunk Enough
TTITLE5=I'll Forget Her Or Die Crying
TTITLE6='Til My Teardrops Turn To Gold
TTITLE7=Barstow Barstool
TTITLE8=Its My Turn
TTITLE9=Alone With You
TTITLE10=Let's Keep Lying Here
TTITLE11=I Never Believed You Anyway
EXTD=YEAR: 2000 ID3G: 2
EXTT0=
EXTT1=
EXTT2=
EXTT3=
EXTT4=
EXTT5=
EXTT6=
EXTT7=
EXTT8=
EXTT9=
EXTT10=
EXTT11=
PLAYORDER=
